<svg width="118" height="45" viewBox="0 0 118 45" fill="none" xmlns="http://www.w3.org/2000/svg">
<path d="M69.8665 24.9552H82.3705V29.1792H74.2849V32.7072H80.7049V36.9312H74.2849V40.4592H82.3705V44.6832H69.8665V24.9552Z" fill="#AFE2FF"/>
<path d="M85.7329 24.9552H93.5137C97.2385 24.9552 99.6265 27.624 99.6265 30.9024C99.6265 33.4584 98.2657 35.0976 95.7649 35.988L102.739 44.6856H97.4329L90.8761 36.5448H90.1537V44.6856H85.7353V24.9552H85.7329ZM92.9857 32.7936C94.2913 32.7936 95.2369 32.0424 95.2369 30.9048C95.2369 29.7096 94.2913 29.016 92.9857 29.016H90.1513V32.796H92.9857V32.7936Z" fill="#AFE2FF"/>
<path d="M110.825 38.4336H108.547V44.6856H104.129V24.9552H110.825C114.799 24.9552 117.773 27.9 117.773 31.7088C117.773 35.5152 114.799 38.4336 110.825 38.4336ZM110.77 29.124H108.547V34.2936H110.77C112.354 34.2936 113.494 33.1536 113.494 31.7088C113.494 30.2352 112.354 29.124 110.77 29.124Z" fill="#AFE2FF"/>
<path d="M25.0321 32.2752C21.5161 32.2752 18.6553 35.1144 18.6553 38.6064C18.6553 42.0984 21.5161 44.9376 25.0321 44.9376C28.5481 44.9376 31.4089 42.0984 31.4089 38.6064C31.4089 35.1144 28.5481 32.2752 25.0321 32.2752ZM25.0321 40.9848C23.7721 40.9848 22.8601 39.984 22.8601 38.6064C22.8601 37.2288 23.7745 36.228 25.0321 36.228C26.2897 36.228 27.2041 37.2288 27.2041 38.6064C27.2041 39.984 26.2897 40.9848 25.0321 40.9848Z" fill="white"/>
<path d="M37.4711 32.5248H33.2903V44.6856H37.4711V32.5248Z" fill="white"/>
<path d="M45.7559 36.1128C46.6823 36.1128 47.3351 36.5664 47.7551 37.4976L47.8511 37.7136H52.1111L52.0079 37.2672C51.2975 34.188 48.8999 32.2752 45.7535 32.2752C42.1175 32.2752 39.3767 34.9968 39.3767 38.6064C39.3767 42.216 42.1175 44.9376 45.7535 44.9376C48.8999 44.9376 51.2975 43.0248 52.0079 39.9456L52.1111 39.4992H47.8511L47.7551 39.7152C47.3351 40.6464 46.6823 41.1 45.7559 41.1C44.4575 41.1 43.5839 40.0992 43.5839 38.6064C43.5815 37.1136 44.4551 36.1128 45.7559 36.1128Z" fill="white"/>
<path d="M60.4129 41.2344C59.1505 41.2344 58.2889 40.7064 57.9865 39.7704H66.6865L66.6985 39.4176C66.7633 37.248 66.1417 35.4216 64.8961 34.14C63.7297 32.9376 62.0713 32.2752 60.2281 32.2752C56.5657 32.2752 53.8057 34.9872 53.8057 38.5848C53.8057 42.2664 56.5057 44.94 60.2281 44.94C63.1921 44.94 65.7097 43.2504 66.5353 40.7256H62.0041C61.6465 41.0304 61.0417 41.2344 60.4129 41.2344ZM60.1369 35.748C60.7969 35.748 61.8745 36.0456 62.2345 37.0896H57.9145C58.2841 36.1416 59.1217 35.748 60.1369 35.748Z" fill="white"/>
<path d="M12.2112 40.308H11.4864L5.3496 32.6496H0L9.7344 44.6856H16.5888V32.6496H12.2112V40.308Z" fill="white"/>
<path d="M37.4711 24.9432H33.2903V29.124H37.4711V24.9432Z" fill="white"/>
<path d="M54.3024 0H12.1968V19.6728V23.952L16.6848 19.6728H54.3024V0ZM17.9832 10.8288H15.5544V9.084H17.9832V10.8288ZM22.6584 12.4008H20.2296V7.512H22.6584V12.4008ZM27.3336 13.9728H24.9048V5.9424H27.3336V13.9728ZM32.0064 15.5424H29.5776V4.3704H32.0064V15.5424ZM36.6816 13.9728H34.2528V5.9424H36.6816V13.9728ZM41.3568 15.5424H38.928V4.3704H41.3568V15.5424ZM46.032 12.4008H43.6032V7.512H46.032V12.4008ZM50.7048 10.8288H48.276V9.084H50.7048V10.8288Z" fill="white"/>
</svg>
